<svg xmlns="http://www.w3.org/2000/svg" viewBox="0 0 90 126" fill="#fff"><path d="M14.2 105.2c-7.8 0-14.2 4.7-14.2 10.4 0 5.8 6.4 10.4 14.2 10.4H90c-6.2-6.2-6.2-14.6 0-20.8H14.2zM64.4 29.5H37.9c-1.4 0-2.5 1.1-2.5 2.5s1.1 2.5 2.5 2.5h26.5c1.4 0 2.5-1.1 2.5-2.5.1-1.4-1.1-2.5-2.5-2.5zM64.4 42.2H37.9c-1.4 0-2.5 1.1-2.5 2.5s1.1 2.5 2.5 2.5h26.5c1.4 0 2.5-1.1 2.5-2.5.1-1.4-1.1-2.5-2.5-2.5zM64.4 54.9H37.9c-1.4 0-2.5 1.1-2.5 2.5s1.1 2.5 2.5 2.5h26.5c1.4 0 2.5-1.1 2.5-2.5s-1.1-2.5-2.5-2.5zM11.2.4C4.8 2.1 0 8.8 0 16.9V105c2.9-2.5 6.8-4.2 11.2-4.7V.4z"/><path d="M16.3 0v100.1H90V0H16.3zm61.4 64.6c0 2.5-2 4.5-4.5 4.5H29.1c-2.5 0-4.5-2-4.5-4.5V24.9c0-2.5 2-4.5 4.5-4.5h44.1c2.5 0 4.5 2 4.5 4.5v39.7z"/></svg>