<svg xmlns="http://www.w3.org/2000/svg" viewBox="0 0 19 18"><path fill="#161616" d="M13.8 5.8h1v2h2v1h-2v2h-1v-2h-2v-1h2z"/><path fill="#161616" stroke="#161616" stroke-miterlimit="10" d="M8.8 5.3h3l-.9.5H10c.3.3 1 .9 1 2s-.6 1.6-1.2 2.1c-.2.2-.4.4-.4.7 0 .3.2.5.4.6l.5.4c.6.5 1.2 1 1.2 2 0 1.3-1.3 2.7-3.9 2.7-2.1 0-3.1-1-3.1-2.1 0-.5.3-1.3 1.1-1.8.9-.5 2.1-.6 2.8-.7-.2-.3-.4-.5-.4-1 0-.2.1-.4.1-.6h-.5C6 10.1 5.2 9 5.2 7.8c0-.7.3-1.4.9-1.9.9-.5 1.9-.6 2.7-.6zm-.9.4c-.4 0-.8.2-1 .5-.3.4-.4.8-.4 1.1 0 1 .6 2.6 1.8 2.6.4 0 .8-.2 1-.4.4-.3.4-.8.4-1.1 0-1-.6-2.7-1.8-2.7zm.7 6.5c-.1 0-.9 0-1.5.2-.3.1-1.3.5-1.3 1.5s1 1.8 2.6 1.8c1.4 0 2.1-.7 2.1-1.6 0-.7-.5-1.1-1.6-1.9h-.3z"/></svg>