<svg xmlns="http://www.w3.org/2000/svg" height="300" width="60" viewBox="0 0 45 342"><path d="M31.2 335c-4.6 0-10.65-3.2-15.85-8.35-6.95-7-10.1-15.4-7.35-19.7a1.37 1.37 0 0 1 .45-.6L11 303.8a3 3 0 0 1 2.05-.8 3.63 3.63 0 0 1 2.45 1.05l4.55 4.55a3.12 3.12 0 0 1 .2 4.45l-2.9 2.9a39 39 0 0 0 3.95 4.75 34.91 34.91 0 0 0 4.75 3.95l2.9-2.9A2.79 2.79 0 0 1 31 321a3.63 3.63 0 0 1 2.45 1l4.55 4.55a3.79 3.79 0 0 1 1 2.2 3 3 0 0 1-.8 2.25l-2.55 2.55a3.12 3.12 0 0 1-.6.45 7.54 7.54 0 0 1-3.85 1zm-18.15-30a.73.73 0 0 0-.6.25l-2.6 2.55a.17.17 0 0 0 0 .1l-.05.1c-2.3 3.45.8 11 7.05 17.2 4.65 4.8 10.3 7.8 14.35 7.8a5.28 5.28 0 0 0 2.8-.7l.1-.05.1-.05 2.55-2.55A.92.92 0 0 0 37 329a1.53 1.53 0 0 0-.45-.95L32 323.4a1.41 1.41 0 0 0-1-.45.73.73 0 0 0-.6.25l-2.95 2.95a1.89 1.89 0 0 1-2.45.15 35.91 35.91 0 0 1-5-4.2 35.36 35.36 0 0 1-4.2-5 1.88 1.88 0 0 1 .15-2.45l2.95-2.95a1.2 1.2 0 0 0-.2-1.65l-4.55-4.55a1.67 1.67 0 0 0-1.1-.5z"/></svg>