<?xml version="1.0" encoding="utf-8"?><svg xmlns="http://www.w3.org/2000/svg" xmlns:xlink="http://www.w3.org/1999/xlink"><symbol viewBox="0 0 4.97 7.91" id="arrow" xmlns="http://www.w3.org/2000/svg"><path d="M.95 7.76l3.84-3.47a.468.468 0 0 0 0-.7l-.03-.01L.95.12a.6.6 0 0 0-.78 0v.01A.472.472 0 0 0 0 .48V7.4a.486.486 0 0 0 .18.36H.17a.6.6 0 0 0 .78 0z" fill="#bdbdbd" fill-rule="evenodd"/></symbol><symbol viewBox="0 0 23 24" id="date-icon" xmlns="http://www.w3.org/2000/svg"><path data-name="date icon" d="M21 15.86V0H1.965L0 1.14V24h20v-2h3s-2-1.61-2-6.14zm-1.323-3.43h-3.442V8.82h3.442v3.61zm-8.425-7.77v3.61H7.403V4.66h3.849zm.567 0h3.85v3.61h-3.85V4.66zM3 4l3.84.66v3.61H3.288zm.288 4.82H6.84v3.61H3.288V8.82zm0 4.17H6.84v2.87c0 .26.006.5.016.74H3.288v-3.61zm4.119 2.87v-2.87h3.849v2.87c0 .26.006.5.016.74H7.423c-.011-.24-.016-.48-.016-.74zm0-3.43V8.82h3.849v3.61H7.407zm4.416-3.61h3.85v3.61h-3.85V8.82zm7.858-.55h-3.442V4.66h3.442v3.61zM6.89 17.15a6.714 6.714 0 0 0 1.072 3.52H4.267a1.845 1.845 0 0 1-.4-.57 7.326 7.326 0 0 1-.571-2.95h3.592zm1.828 3.52c-.444-.4-1.077-1.35-1.26-3.52h3.848a6.712 6.712 0 0 0 1.073 3.52H8.718zm4.416 0c-.444-.4-1.077-1.35-1.259-3.52h3.847a6.712 6.712 0 0 0 1.073 3.52h-3.661zm-1.3-4.07c-.01-.24-.016-.48-.016-.74v-2.87h3.85v2.87c0 .26 0 .5.015.74h-3.849zm4.4-.74v-2.87h3.442v3.61h-3.428c-.004-.24-.009-.48-.009-.74zM19 23H1V2l.965-.49V16.6c0 5 2 5.36 2 5.36L19 22v1zm1.11-2.33h-2.56c-.445-.4-1.077-1.35-1.26-3.52h3.41a10.529 10.529 0 0 0 .685 3.52h-.275z" fill="#fff" fill-rule="evenodd"/></symbol><symbol viewBox="0 0 17.75 25.906" id="hotel" xmlns="http://www.w3.org/2000/svg"><path d="M16.943 3.32h-3.831v2.186a2.12 2.12 0 0 1-2.116 2.116H6.751a2.117 2.117 0 0 1-2.115-2.116V3.32H.812a.818.818 0 0 0-.807.806v20.967a.82.82 0 0 0 .807.806h5.389a1.359 1.359 0 0 1-.032-.288v-3.672a1.371 1.371 0 0 1 1.354-1.354h2.709a1.371 1.371 0 0 1 1.354 1.354v3.672a1.359 1.359 0 0 1-.032.288h5.389a.818.818 0 0 0 .807-.806V4.126a.816.816 0 0 0-.807-.806zm-1.36 15.23a.47.47 0 0 1-.344.146h-.979a.471.471 0 0 1-.344-.146.467.467 0 0 1-.145-.343v-.979a.47.47 0 0 1 .145-.344.475.475 0 0 1 .344-.146h.979a.5.5 0 0 1 .49.49v.979a.468.468 0 0 1-.146.343zm.146 2.592v.979a.5.5 0 0 1-.49.488h-.979a.5.5 0 0 1-.489-.488v-.979a.5.5 0 0 1 .489-.489h.979a.5.5 0 0 1 .49.489zm-.146-6.506a.466.466 0 0 1-.344.146h-.979a.5.5 0 0 1-.489-.49v-.978a.5.5 0 0 1 .489-.489h.979a.5.5 0 0 1 .49.489v.978a.468.468 0 0 1-.146.344zm0-3.914a.466.466 0 0 1-.344.146h-.979a.5.5 0 0 1-.489-.49V9.4a.5.5 0 0 1 .489-.489h.979a.5.5 0 0 1 .49.489v.978a.468.468 0 0 1-.146.344zm0-3.914a.466.466 0 0 1-.344.146h-.979a.5.5 0 0 1-.489-.49v-.977a.5.5 0 0 1 .489-.489h.979a.5.5 0 0 1 .49.489v.978a.468.468 0 0 1-.146.343zM9.856 9.4a.5.5 0 0 1 .489-.489h.979a.5.5 0 0 1 .489.489v.978a.5.5 0 0 1-.489.49h-.979a.5.5 0 0 1-.489-.49V9.4zm0 3.914a.5.5 0 0 1 .489-.489h.979a.5.5 0 0 1 .489.489v.978a.5.5 0 0 1-.489.49h-.979a.5.5 0 0 1-.489-.49v-.978zM3.839 18.55a.471.471 0 0 1-.344.146h-.983a.5.5 0 0 1-.489-.489v-.979a.5.5 0 0 1 .489-.49h.979a.475.475 0 0 1 .344.146.47.47 0 0 1 .145.344v.979a.467.467 0 0 1-.141.343zm.145 2.592v.979a.5.5 0 0 1-.489.488h-.983a.5.5 0 0 1-.489-.488v-.979a.5.5 0 0 1 .489-.489h.979a.5.5 0 0 1 .493.489zm-.145-6.506a.468.468 0 0 1-.344.146h-.983a.5.5 0 0 1-.489-.49v-.978a.5.5 0 0 1 .489-.489h.979a.5.5 0 0 1 .489.489v.978a.467.467 0 0 1-.141.344zm0-3.914a.468.468 0 0 1-.344.146h-.983a.5.5 0 0 1-.489-.49V9.4a.5.5 0 0 1 .489-.489h.979a.5.5 0 0 1 .489.489v.978a.467.467 0 0 1-.141.344zm0-3.914a.468.468 0 0 1-.344.146h-.983a.5.5 0 0 1-.489-.49v-.977a.5.5 0 0 1 .489-.489h.979a.5.5 0 0 1 .489.489v.978a.467.467 0 0 1-.141.343zm4.06 11.4a.5.5 0 0 1-.49.49h-.978a.5.5 0 0 1-.489-.49v-.978a.5.5 0 0 1 .489-.49h.981a.5.5 0 0 1 .49.49v.978zm0-3.914a.5.5 0 0 1-.49.49h-.978a.5.5 0 0 1-.489-.49v-.978a.5.5 0 0 1 .489-.489h.981a.5.5 0 0 1 .49.489v.978zm0-3.914a.5.5 0 0 1-.49.49h-.978a.5.5 0 0 1-.489-.49v-.978a.5.5 0 0 1 .489-.489h.981a.5.5 0 0 1 .49.489v.978zm3.425 8.318h-.978a.5.5 0 0 1-.49-.489v-.979a.5.5 0 0 1 .49-.49h.978a.5.5 0 0 1 .49.49v.979a.5.5 0 0 1-.49.487zM5.943 6.48a1.214 1.214 0 0 0 .812.3H11a1.219 1.219 0 0 0 .813-.3c.029-.024.059-.044.087-.072a1.227 1.227 0 0 0 .374-.9V1.265A1.277 1.277 0 0 0 11-.009H6.755a1.277 1.277 0 0 0-1.273 1.274v4.243a1.223 1.223 0 0 0 .374.9c.027.026.056.045.087.07zm.671-3.158V1.406a.285.285 0 0 1 .283-.282h.565a.285.285 0 0 1 .283.282v1.415h2.267V1.406a.285.285 0 0 1 .283-.282h.566a.268.268 0 0 1 .2.083.273.273 0 0 1 .084.2v3.961a.287.287 0 0 1-.282.283h-.571a.287.287 0 0 1-.283-.283V3.953H7.746v1.415a.287.287 0 0 1-.283.283h-.566a.287.287 0 0 1-.283-.283V3.323z" fill="#5f5f5f" fill-rule="evenodd"/></symbol><symbol viewBox="0 0 53.969 44" id="luggage" xmlns="http://www.w3.org/2000/svg"><path d="M11.253 37.76a3.672 3.672 0 0 0 0 5.167 3.614 3.614 0 0 0 5.133 0 3.672 3.672 0 0 0 0-5.167 3.614 3.614 0 0 0-5.133 0zM53.5.523l-.052-.052a1.937 1.937 0 0 0-2.726.213L36.955 14.538l-9.09-9.149L2.22 31.2l-1.18-1.188L26.685 4.2a3.612 3.612 0 0 0-5.124.009L1.03 24.871a3.672 3.672 0 0 0 0 5.167l8.183 8.234a5.035 5.035 0 0 1 9.238.06l21.073-21.209L53.291 3.268A1.965 1.965 0 0 0 53.5.523z" fill="#464646" fill-rule="evenodd"/></symbol><symbol viewBox="0 0 52 44" id="map" xmlns="http://www.w3.org/2000/svg"><path d="M51.188 2.6L40.205.027a1.058 1.058 0 0 0-.674.07L26.347 6.225 14.188 1.074a1.03 1.03 0 0 0-.788-.01L.657 6.109a1.069 1.069 0 0 0-.671 1v35.524a1.072 1.072 0 0 0 .459.882 1.034 1.034 0 0 0 .977.113L13.77 38.74l12.192 5.166a1.039 1.039 0 0 0 .843-.015l13.276-6.171 10.635 2.491a1.05 1.05 0 0 0 .892-.206 1.076 1.076 0 0 0 .4-.836V3.643a1.07 1.07 0 0 0-.82-1.043zM49.9 37.822l-9.7-2.271a1.057 1.057 0 0 0-.674.07l-13.184 6.128-12.16-5.152a1.015 1.015 0 0 0-.405-.082 1.032 1.032 0 0 0-.382.072L2.087 41.065V7.835l11.679-4.622 12.192 5.165a1.036 1.036 0 0 0 .843-.015l13.276-6.171 9.819 2.3v33.33zM10.527 24.816a1.041 1.041 0 0 0-1.428.423 36.76 36.76 0 0 0-.745 1.45 1.079 1.079 0 0 0 .49 1.428 1.042 1.042 0 0 0 1.405-.5c.007-.013.262-.551.7-1.355a1.079 1.079 0 0 0-.423-1.446zm2.022-4.855c-.328.394-.647.811-.954 1.237a1.079 1.079 0 0 0 .229 1.494 1.036 1.036 0 0 0 .62.205 1.049 1.049 0 0 0 .851-.438c.277-.385.564-.763.86-1.117a1.082 1.082 0 0 0-.122-1.507 1.044 1.044 0 0 0-1.485.126zm7.3-1.47a3.318 3.318 0 0 0-2.7-1.5 3.217 3.217 0 0 0-.614.06 1.069 1.069 0 0 0-.837 1.251 1.058 1.058 0 0 0 1.231.849 1.07 1.07 0 0 1 1.244.636c.255.338.5.717.758 1.123a1.043 1.043 0 0 0 .891.5 1.03 1.03 0 0 0 .559-.165 1.078 1.078 0 0 0 .329-1.474 18.095 18.095 0 0 0-.866-1.28zm13.131 6.148l-.042.066a16.017 16.017 0 0 1-2.494 2.753 1.082 1.082 0 0 0-.147 1.5 1.038 1.038 0 0 0 1.48.149 18.255 18.255 0 0 0 2.862-3.149l.088-.131a1.081 1.081 0 0 0-.287-1.484 1.042 1.042 0 0 0-1.465.296zm-9.179.491a1.042 1.042 0 0 0-1.454-.323 1.081 1.081 0 0 0-.318 1.477 12.552 12.552 0 0 0 2.9 3.415 1.036 1.036 0 0 0 .626.209 1.048 1.048 0 0 0 .847-.432 1.082 1.082 0 0 0-.219-1.5A10.577 10.577 0 0 1 23.8 25.13zm13.507-5.605a1.039 1.039 0 0 0-1.432.408c-.237.425-.483.854-.727 1.267a1.079 1.079 0 0 0 .362 1.466 1.03 1.03 0 0 0 .54.153 1.044 1.044 0 0 0 .9-.52c.254-.429.51-.874.755-1.317a1.08 1.08 0 0 0-.406-1.457zm1.824-7.8a1.049 1.049 0 0 0-1.377-.574 1.076 1.076 0 0 0-.565 1.4l.756 1.838-1.811.769a1.076 1.076 0 0 0-.565 1.4 1.052 1.052 0 0 0 .972.657 1.028 1.028 0 0 0 .406-.083l1.811-.768.756 1.838a1.05 1.05 0 0 0 .971.657 1.021 1.021 0 0 0 .406-.083 1.075 1.075 0 0 0 .565-1.4l-.756-1.839 1.808-.767a1.074 1.074 0 0 0 .565-1.4 1.048 1.048 0 0 0-1.377-.575l-1.809.768z" fill="#dbcdb2" fill-rule="evenodd"/></symbol><symbol viewBox="0 0 51 40" id="sekil1" xmlns="http://www.w3.org/2000/svg"><path data-name="Şekil 1 kopya" d="M17 12.858a4.25 4.25 0 1 1-4.25-4.287A4.267 4.267 0 0 1 17 12.858zm22.67 15.713S37.78 20 32.11 20s-7.55 5.717-11.33 5.717-3.78-1.433-7.55-1.433c-3.79 0-7.56 4.287-7.56 4.287h34zm8.5-22.857H51V40h-2.83V5.714zM5.67 37.143H51V40H5.67v-2.857zm39.66-2.857V0H0v34.286h45.33zM2.83 2.857H42.5v28.572H2.83V2.857z" fill="#fff" fill-rule="evenodd"/></symbol><symbol viewBox="0 0 91 40" id="sekil2" xmlns="http://www.w3.org/2000/svg"><path d="M91 0l-2.6.7c-.2 0-15.7 4.5-43 4.5S2.7.8 2.6.7L0 0v40l2.5-.6c.2 0 18.2-4.5 42.9-4.5 14.5-.1 28.9 1.4 43.1 4.5l2.5.6V0zm-4 34.9c-3.3-.7-9.7-1.9-18.2-2.8l-3-4.7h2.9l-5.8-10-5.8 10h2.7l-2.4 3.8c-1.6-.1-3.3-.2-4.9-.2L49 25.7h3.8l-7.6-13.1-7.6 13.1h3.5L37.8 31c-1.6.1-3.2.1-4.7.2l-2.4-3.8h2.9l-5.8-10-5.8 10h2.7l-3 4.8c-8.2.9-14.3 2-17.5 2.7V5.3c5.5 1.3 19.6 4 41.4 4 21.8 0 36.1-2.7 41.6-4L87 34.9zM75.5 11.3c2.2 0 4 1.8 4 4s-1.8 4-4 4-4-1.8-4-4 1.8-4 4-4z"/></symbol><symbol viewBox="0 0 64.72 47.782" id="speech-bubble" xmlns="http://www.w3.org/2000/svg"><defs><filter id="ha" x="1395.78" y="918.406" width="64.72" height="47.782" filterUnits="userSpaceOnUse"><feFlood result="flood" flood-color="#464646"/><feComposite result="composite" operator="in" in2="SourceGraphic"/><feBlend result="blend" in2="SourceGraphic"/></filter></defs><path d="M1452.2 936.162a18.461 18.461 0 0 1 .57 4.466c0 11.8-11.1 21.65-25.71 23.764a29.935 29.935 0 0 0 10.24 1.786 30.292 30.292 0 0 0 9.73-1.586 39.051 39.051 0 0 0 11.24 1.457 25.754 25.754 0 0 1-3.86-5.43c3.76-3.028 6.08-7.04 6.08-11.458 0-5.224-3.23-9.88-8.29-12.999zm-53.54 24.922a2.086 2.086 0 0 0 1.8.979h.1c2.14-.093 6.4-1.379 10.91-3.965 2.42.386 7.82 1.107 9.71 1.107 14.25 0 25.4-8.954 25.4-20.392 0-11.248-11.39-20.395-25.4-20.395s-25.39 9.144-25.39 20.392c0 5.233 2.55 10.294 7.04 14.077a26.793 26.793 0 0 1-3.97 6.232 1.685 1.685 0 0 0-.2 1.965zm1.18-22.274c0-9.228 9.57-16.738 21.35-16.738s21.35 7.51 21.35 16.738c0 9.537-9.18 16.738-21.35 16.738-1.6 0-7.97-.84-9.72-1.171a2.192 2.192 0 0 0-1.53.267 35.607 35.607 0 0 1-4.8 2.4 30.309 30.309 0 0 0 2-4.079 1.728 1.728 0 0 0-.62-2.029c-4.31-3.196-6.68-7.508-6.68-12.126z" transform="translate(-1395.78 -918.406)" fill-rule="evenodd" filter="url(#ha)"/></symbol><symbol viewBox="0 0 70 70" id="sunny" xmlns="http://www.w3.org/2000/svg"><path d="M23.07 2.06l-2.93 1.214 2.02 4.884a28.779 28.779 0 0 1 2.94-1.21L23.07 2.06zM11.38 9.132l-2.25 2.243 3.75 3.744a28.051 28.051 0 0 1 2.24-2.243l-3.74-3.744zM5.3 33.414H0v3.172h5.3c-.03-.525-.05-1.054-.05-1.586s.02-1.061.05-1.586zM3.27 20.142l-1.21 2.931 4.89 2.025a27.55 27.55 0 0 1 1.21-2.933l-4.89-2.023zm55.35-11.01l-3.74 3.744a28.051 28.051 0 0 1 2.24 2.243l3.75-3.744-2.25-2.243zM46.93 2.06L44.9 6.948a28.779 28.779 0 0 1 2.94 1.21l2.02-4.884-2.93-1.214zM36.59 0h-3.18v5.3q.795-.042 1.59-.043t1.59.043V0zm30.14 20.139l-4.89 2.023a27.55 27.55 0 0 1 1.21 2.933l4.89-2.025-1.21-2.931zM6.95 44.9l-4.89 2.024 1.21 2.931 4.89-2.023A27.62 27.62 0 0 1 6.95 44.9zm56.1 0a27.62 27.62 0 0 1-1.21 2.932l4.89 2.024 1.21-2.932-4.89-2.024zm-5.93 9.978a28.217 28.217 0 0 1-2.24 2.243l3.74 3.744 2.25-2.243-3.75-3.744zM70 33.414h-5.3c.03.525.05 1.054.05 1.586s-.02 1.061-.05 1.586H70v-3.172zM47.84 61.842a29.008 29.008 0 0 1-2.94 1.21l2.03 4.888 2.93-1.214-2.02-4.884zm-34.96-6.961l-3.75 3.744 2.25 2.243 3.74-3.744a28.217 28.217 0 0 1-2.24-2.243zm9.28 6.961l-2.02 4.884 2.93 1.214 2.03-4.888a29.008 29.008 0 0 1-2.94-1.21zm14.43 2.862q-.795.042-1.59.043t-1.59-.043V70h3.18v-5.3zM35 11.592A23.408 23.408 0 1 1 11.59 35 23.435 23.435 0 0 1 35 11.592m0-2.84A26.248 26.248 0 1 0 61.25 35 26.248 26.248 0 0 0 35 8.752z" fill="#fff" fill-rule="evenodd"/></symbol><symbol viewBox="0 0 58 46.969" id="world" xmlns="http://www.w3.org/2000/svg"><path d="M23.05 1.354L22.9.718c.86-.2 1.73-.358 2.6-.479l.1.647c-.86.118-1.71.276-2.55.468zm12.86-.038q-1.26-.285-2.55-.449l.08-.649c.88.113 1.76.268 2.61.46zM28.18.652l-.03-.653c.88-.041 1.78-.041 2.65-.006l-.02.654c-.87-.036-1.74-.036-2.6.005zM4.21 44.588c.45.755.94 1.494 1.46 2.2l.53-.386a25.718 25.718 0 0 1-1.43-2.151zm-2.32-4.752c.32.827.67 1.644 1.05 2.427l.59-.285c-.37-.765-.72-1.564-1.02-2.371zM.48 34.748c.16.866.36 1.733.59 2.575l.63-.174a30.46 30.46 0 0 1-.58-2.519zm.18-5.258H0c0 .877.04 1.765.12 2.641l.65-.059C.7 31.214.66 30.347.66 29.49zm.45-5.143l-.65-.116a32.67 32.67 0 0 0-.35 2.621l.65.056c.08-.858.19-1.721.35-2.561zm1.36-4.983l-.62-.227c-.31.83-.58 1.674-.81 2.514l.63.173c.23-.82.5-1.647.8-2.455zm2.24-4.654l-.57-.333c-.45.752-.87 1.536-1.25 2.33l.59.28c.37-.773.79-1.541 1.23-2.277zm.89-2.54l.53.383c.51-.695 1.05-1.375 1.62-2.023l-.5-.429c-.58.661-1.13 1.359-1.65 2.068zm5.47-5.725c-.68.545-1.35 1.132-1.99 1.739l.45.475c.63-.6 1.28-1.174 1.95-1.705zm38.85 1.617c-.64-.6-1.31-1.183-2-1.733l-.41.514c.68.535 1.34 1.1 1.96 1.693zm-34.13-3.97l-.31-.571c-.77.413-1.53.872-2.27 1.362l.36.541c.73-.478 1.47-.924 2.22-1.332zm29.98.689c-.74-.48-1.5-.934-2.28-1.35l-.31.576c.76.4 1.51.85 2.23 1.319zM20.55 2.047l-.21-.619c-.84.276-1.67.592-2.47.937l.26.6c.78-.338 1.6-.645 2.42-.918zm20.55.246c-.81-.339-1.65-.651-2.49-.921l-.2.622c.83.263 1.64.567 2.43.9zm16.39 13.148l-1.57-1.567.64-5.338-.72-.711-1.85 4.126-1.07-1.067a.9.9 0 0 0-.36-.208l.37-1.782-.58-.574-.86 2-2 .852.57.574 1.79-.36a1.06 1.06 0 0 0 .21.352l1.08 1.069-4.15 1.85.72.715 5.36-.643 1.57 1.567a1.689 1.689 0 0 0 1.08.5.27.27 0 0 0 .2-.072.234.234 0 0 0 .07-.193 1.718 1.718 0 0 0-.5-1.09zm-27.86-6.74a19.131 19.131 0 1 0 19.2 19.131 19.185 19.185 0 0 0-19.2-19.131zm15.65 22.25a1.9 1.9 0 0 1 .57 1.025 16.764 16.764 0 0 1-24.2 10.526c.02-.1.05-.209.07-.321.14-.68 1.2-1.007 1.65-1.457s1.32-.707 1.59-1.283c.18-.377-.07-.861.08-1.213a3.931 3.931 0 0 1 .76-.759 4.573 4.573 0 0 0 .91-2.567h-2.33c-.73 0-.59-.866-.59-1.4a2 2 0 0 0-.13-.907 1.862 1.862 0 0 0-.96-.353 1.87 1.87 0 0 1-.98-1.267c-.06-.354-.05-.614-.5-.6s-.84.369-1.25.369h-4.95a1.434 1.434 0 0 0 .07.863c.42.208.84.418 1.25.626a3.291 3.291 0 0 1 1.12 1.7c.3.6.64 1.187.9 1.8a6.817 6.817 0 0 0 1.16 2.215 2.169 2.169 0 0 1 .84.559 3.009 3.009 0 0 1-.11 1.426c-.11.485-.25.965-.38 1.446a16.734 16.734 0 0 1-6.72-10.587c.24-.018.47-.049.61-.049a.791.791 0 0 0 .79-.359.94.94 0 0 0 .47-.765v-1.37c.56.277 1.12.555 1.67.831a.938.938 0 0 1 1.06-.851c.66-.109 1.1-.812 1.71-.812a3.23 3.23 0 0 1 1.19.248 1.423 1.423 0 0 0 .82.1c.34-.108.26-.728.38-1.007a1.426 1.426 0 0 1 .91-1.011c.51-.041 1.16-.269.61-.821A9.147 9.147 0 0 1 21.9 22.8a3.03 3.03 0 0 0-.52-1.048c-.65-.484-1.62.172-2.11.607-.27.245.16.81-.22.968a2.588 2.588 0 0 1-2.03.165 4.437 4.437 0 0 0-.95-.637c-.27-.048-.21-.124-.21-.424V20.91c0-.21.06-.127.25-.182.75-.216.31-1.2 1.06-1.209.87-.014.01-1.489-.23-1.789a.7.7 0 0 0-.4-.279 16.752 16.752 0 0 1 25.32-1 25.808 25.808 0 0 1-2.53 2.575 9.638 9.638 0 0 1-1.54.792 3.98 3.98 0 0 1-1.73.117c-.15 0-1.84-.023-1.84.021 0 .5.25 1.517-.23 1.759a6.159 6.159 0 0 0-1.69.965 1 1 0 0 0-.51.655.5.5 0 0 0-.26-.071 4.233 4.233 0 0 0-2.04.409 1.039 1.039 0 0 0-.31.951 2.076 2.076 0 0 1-.49 1.191 1.021 1.021 0 0 0-.31 1.05l1.95-.215a1.231 1.231 0 0 0 .55-.1 2.014 2.014 0 0 1 .02-.816c.25-.245.5-.492.74-.739.15-.15.43.277.55.4.23.225.45.273.21.51s-.46.455-.68.681a4.73 4.73 0 0 0 .83-.019 2.642 2.642 0 0 1 .84-1.645 1.144 1.144 0 0 1 1.59-.067 1.367 1.367 0 0 1 .08.9 11.143 11.143 0 0 0 .03 1.664 1.335 1.335 0 0 0 .97-.154c.97-.811 2.23-.616 3.17-1.51.28.554.56 1.109.83 1.664-.66.22-1.32.44-1.99.66a1.974 1.974 0 0 1-.52.156 4.93 4.93 0 0 0-.52-.864c-.27-.351-.34-.047-.29.276a2.844 2.844 0 0 0 .8 1.416 7.037 7.037 0 0 1 .85 1.683c-.05-1.022 1.44.6 1.67.832.36-.352.71-.7 1.06-1.056.18-.176.35-.349.53-.523.14-.142-.02-.182-.13-.335-.59-.82.93-.581 1.39-.581a2.876 2.876 0 0 1 2.16.831c-.81-.045.02.855.21 1.037zm-14.95-9.357c-.19.185-.38.369-.56.554a.6.6 0 0 0-.52.3c-.01.27-.02.538-.04.808.37-.181.73-.363 1.09-.543a3.426 3.426 0 0 0 .03-1.119zm1.65-.832c.21 0 .57.116.57-.13v-.015a.259.259 0 0 0 .23.139c-.07.279-.14.559-.23.838.26-.253.51-.5.76-.759a1.331 1.331 0 0 0 .08-.821v-1.745c-.02.032-.05.083-.08.143l-.03-.35c-.03.194-.06.387-.1.581a7.249 7.249 0 0 0-.63 1.464v-1.838c-.17.334-1.46 2.493-.57 2.493zm7.48 13.289a2.941 2.941 0 0 0 1.44-.812l-1.86-.616a1.3 1.3 0 0 1-1.03-.975 4.291 4.291 0 0 0-.85-1.3c-.3-.3-1.27-.959-1.27-1.395 0-.664.13-.7-.49-.7h-6.19a9.316 9.316 0 0 0-1.36 1.68c-.66 1.1.16 1.642.89 2.43.77.842.47 2.272 1.91 2.524a9.739 9.739 0 0 0 1.62.02c.07 0 1.21-.161 1.1-.361a4.7 4.7 0 0 1 .1 1.082q.15.885.36 1.759a10.056 10.056 0 0 1 .39 2.1c0 .733.77 1.179 1.27 1.681a.831.831 0 0 0 .57.4h1.42c.23 0-.2-2.884.54-3.249a1.33 1.33 0 0 0 .75-.229c.09-.164-.01-.365.08-.528.21-.4.7-.009.75-.666a3.547 3.547 0 0 0-.44-2.054c-.46-.527-.31-.689.3-.791zM26.7 16.593a10.89 10.89 0 0 0-1.37-1.153 2.964 2.964 0 0 0-1.96-.5c-.38 0-.77-.026-1.14 0-.17.014-.1.195-.15.315a9.585 9.585 0 0 1-2.05 2.176c.8 0 1.25 1.657 1.55 2.262a2.333 2.333 0 0 1 .12 1.148 1.1 1.1 0 0 0 .36 1.109c.41.408.38.571.78.169s.81-.81 1.22-1.215a1.413 1.413 0 0 0 .14-1.061c0-.534-.19-.748.36-.748a1.593 1.593 0 0 0 1.14-.25 1.81 1.81 0 0 1 .8-.562c.39-.076 1.21-.215 1.04-.852a3.323 3.323 0 0 0-.84-.838z" fill="#464646" fill-rule="evenodd"/></symbol></svg>